<svg xmlns="http://www.w3.org/2000/svg" viewBox="0 0 99.62 49.39"><defs><style>.cls-1{fill:#e73483;}</style></defs><g id="レイヤー_2" data-name="レイヤー 2"><g id="レイヤー_1-2" data-name="レイヤー 1"><path class="cls-1" d="M50.34,44.47h-.52a16.46,16.46,0,0,0-.69,2.5v0a16.46,16.46,0,0,0-.69-2.5H47.9a13,13,0,0,1,1.22,3.42,13.41,13.41,0,0,1,1.22-3.42"/><path class="cls-1" d="M49.12,48.52a10.88,10.88,0,0,1,2.4-4.07l-.62,0A11.52,11.52,0,0,0,49.13,48h0a11.82,11.82,0,0,0-1.78-3.57h-.62a10.68,10.68,0,0,1,2.4,4.07"/><path class="cls-1" d="M49.12,46.78l.29-2.3h-.58c.12.72.22,1.43.29,2.3"/><path class="cls-1" d="M49.12,48.62h0a11,11,0,0,0-2.68-3.82v4.59h5.44V44.73a11,11,0,0,0-2.76,3.89"/><polygon class="cls-1" points="51.27 43.54 47.05 43.54 46.47 44.3 51.85 44.3 51.27 43.54"/><path class="cls-1" d="M24.37,38.77a1.18,1.18,0,0,1,.77,1.12s0,0-.06,0L25,39.86a1.64,1.64,0,0,0-.71-.81c-.43-.22-.68,0-1.21,1-.63,1.2-.57,1.62-.14,1.84A1.49,1.49,0,0,0,24,42a.22.22,0,0,1,.14,0s0,0,0,.06a1.31,1.31,0,0,1-1.44,0c-1-.54-1.25-1.34-.58-2.54a1.54,1.54,0,0,1,2.25-.72"/><path class="cls-1" d="M27.06,43.65a.07.07,0,0,0,0,.06c.12.13.24.27.37.4s0,0,0,.06,0,0-.09,0c-.6-.25-1.2-.5-1.79-.77-.05,0-.08,0-.07-.06s0,0,.07,0l.51,0s0,0,.05,0c.39-.91.79-1.82,1.19-2.74,0,0,0,0,0-.07L27,40.11A.09.09,0,0,1,27,40s0,0,.09,0l1.2.52s.06,0,0,.06a1.8,1.8,0,0,0-.08.21h0a1.51,1.51,0,0,1,.81,0,.72.72,0,0,1,.48.8s0,.05-.08,0a.13.13,0,0,1-.08-.1.93.93,0,0,0-.58-.49.61.61,0,0,0-.83.31c-.3.74-.61,1.47-.91,2.21"/><path class="cls-1" d="M33.82,44.29c-.45,1.57-1.3,1.7-2.19,1.42s-1.51-.89-1-2.42a1.48,1.48,0,0,1,2.07-1.08,1.49,1.49,0,0,1,1.08,2.08m-1-.31c.33-1.1.22-1.39-.13-1.5s-.59.07-.95,1.16c-.47,1.41-.34,1.68,0,1.8s.63,0,1.07-1.46"/><path class="cls-1" d="M38.3,45s0,0-.09,0a.1.1,0,0,1-.07-.08,2.58,2.58,0,0,0-.26-.75.79.79,0,0,0-.54-.46.3.3,0,0,0-.41.27c-.06.27.13.7.58,1.23a1.94,1.94,0,0,1,.63,1.45c-.07.41-.74.53-1.33.4a1.58,1.58,0,0,1-.79-.4l-.41.09h-.14a.05.05,0,0,1,0-.06c.11-.41.21-.82.31-1.23,0,0,0,0,.06,0s.06,0,.07.08c.09.57.3,1.12.82,1.23.31.07.47,0,.5-.18.09-.4-.26-.92-.62-1.35a1.68,1.68,0,0,1-.48-1.36c.11-.41.69-.55,1.17-.45a1.55,1.55,0,0,1,.73.38l.42-.09a.15.15,0,0,1,.1,0,.09.09,0,0,1,0,.08c-.09.4-.17.81-.25,1.21"/><path class="cls-1" d="M42.91,45.73s0,.05-.08.05a.1.1,0,0,1-.08-.07,2.53,2.53,0,0,0-.32-.73.76.76,0,0,0-.57-.41c-.28,0-.36.11-.39.3s.19.69.68,1.18a2,2,0,0,1,.75,1.39c0,.41-.7.59-1.3.51a1.61,1.61,0,0,1-.81-.33l-.4.12a.35.35,0,0,1-.15,0s0,0,0,0c.07-.42.13-.84.2-1.25a0,0,0,0,1,.06,0c.07,0,.07,0,.08.07.13.56.39,1.09.91,1.16.31,0,.46,0,.49-.22,0-.4-.34-.89-.73-1.3a1.62,1.62,0,0,1-.59-1.31c.07-.42.64-.61,1.12-.54a1.5,1.5,0,0,1,.76.31l.4-.12a.29.29,0,0,1,.1,0s.05,0,.05.07l-.15,1.23"/><path class="cls-1" d="M57.68,45.51s0,.05-.08.06a.08.08,0,0,1-.09,0,2.4,2.4,0,0,0-.5-.62.78.78,0,0,0-.66-.24c-.28,0-.31.19-.29.39s.36.62,1,1a2,2,0,0,1,1.09,1.15c.06.41-.53.75-1.12.83a1.55,1.55,0,0,1-.88-.11l-.35.22a.46.46,0,0,1-.14,0,0,0,0,0,1,0,0c0-.42-.09-.84-.14-1.26a.06.06,0,0,1,.05-.06c.07,0,.08,0,.09.05.28.51.66,1,1.19.89.31,0,.43-.17.41-.34-.06-.41-.56-.78-1-1.07a1.65,1.65,0,0,1-.91-1.11c0-.43.46-.76.94-.82a1.51,1.51,0,0,1,.81.11l.36-.22s0-.05.09-.06a.06.06,0,0,1,.06.06c.06.41.13.82.19,1.23"/><path class="cls-1" d="M59.67,44.13a.06.06,0,0,0-.06,0L59.19,44s-.06,0-.06-.05,0,0,.08,0q.63-.1,1.26-.24s.07,0,.08,0a1.16,1.16,0,0,0,0,.18h0a1.86,1.86,0,0,1,.82-.42c.57-.12,1.23-.11,1.59,1.32.42,1.81-.18,2.13-.8,2.27a1.61,1.61,0,0,1-1,0h0l.15.75s0,0,0,0l.49.13S62,48,62,48l-.08,0c-.63.13-1.26.26-1.89.37-.06,0-.08,0-.09,0s0,0,0-.06l.4-.31s0,0,0-.05l-.72-3.84m1.45,2.38c.06.27.48.4.79.34s.41-.25.06-1.8c-.27-1.19-.46-1.29-.79-1.22s-.55.29-.48.61l.42,2.07"/><path class="cls-1" d="M68.16,44.94a.17.17,0,0,0,.23.09.7.7,0,0,0,.36-.24s0,0,.06,0a0,0,0,0,1,0,0c0,.2-.24.49-.58.61a1.36,1.36,0,0,1-.89,0,2.32,2.32,0,0,1-.87.54c-.54.16-1.25.19-1.5-.68-.2-.72,0-1,1.27-2,.23-.18.21-.24.13-.5s-.24-.3-.65-.17a3.61,3.61,0,0,0-1.09.6.23.23,0,0,1-.1.05,0,0,0,0,1,0,0,2.62,2.62,0,0,1,1.32-1c.46-.14,1.32-.27,1.54.37l.77,2.27m-1.55-1.55h0c-.63.53-.78.81-.58,1.45s.41.82.71.73.48-.37.43-.54c-.18-.55-.35-1.1-.53-1.65"/><path class="cls-1" d="M70.61,40.57a1.19,1.19,0,0,1,1.35.15s0,.05,0,.06-.06,0-.09,0a1.61,1.61,0,0,0-1.07,0c-.44.18-.47.49,0,1.54.51,1.26.86,1.48,1.3,1.29a1.53,1.53,0,0,0,.74-.7.32.32,0,0,1,.1-.1s.06,0,.06,0A1.32,1.32,0,0,1,72,44c-1.08.45-1.81.08-2.3-1.21a1.54,1.54,0,0,1,.89-2.18"/><path class="cls-1" d="M75.22,40.91c.37.74.74.92,1.34.61a1.57,1.57,0,0,0,.75-.76s0-.06.07-.08.06,0,.06,0a1.43,1.43,0,0,1-.91,1.15c-1.19.61-2,.31-2.59-1a1.5,1.5,0,0,1,.72-2.14c.7-.36,1.44-.46,1.91.39l.19.36s0,.08-.07.13l-1.7.89.23.45m.59-1.15-.31-.59a.48.48,0,0,0-.71-.23c-.32.17-.36.39-.21.71l.3.58.93-.47"/><path class="cls-1" d="M29.85,32.14c-1.63,0-2.46-2.24-2.46-6.64,0-.06.18-5.75.18-7a9.34,9.34,0,0,0-.34-2.73l-.12-.29a5.63,5.63,0,0,0-2.54-2.54l-.25-.16L20.56,15.1a6,6,0,0,0-2.4-2.25l-.25-.16-3.42,2.13A7.26,7.26,0,0,0,8,10.34a7.12,7.12,0,0,0-5.32,2.15A8.63,8.63,0,0,0,0,18.63c0,3,1.65,5,4.21,5a5.4,5.4,0,0,0,5.33-5.05,2.3,2.3,0,0,0-2.43-2.33,2,2,0,0,0-1.9,1.37l-.15.31.35-.08a5.08,5.08,0,0,1,1.14-.17,1.82,1.82,0,0,1,1.73,2,2.66,2.66,0,0,1-2.62,2.69c-2,0-4.21-2.13-4.21-5.29a5.34,5.34,0,0,1,5.4-5.51c3.62,0,6.14,4.16,6.14,10.11,0,6.76-3,11.13-7.59,11.13-1.66,0-2.69-.62-2.69-1.62s.74-1.69,2.48-2.6l.39-.2L3.71,28a1.36,1.36,0,0,0-.39,0,2.2,2.2,0,0,0-2,2.44c0,1.94,1.52,3.09,4.07,3.09a9.08,9.08,0,0,0,6.77-3.34,14,14,0,0,0,3.34-9.44,16.1,16.1,0,0,0-.71-5.18l1.84-1.19c1.8,1.15,2,2,2,3.77a104.15,104.15,0,0,1-.88,15.19l0,.21,2.93-.29V33c.52-9.62.56-13.63.56-14.63a9.38,9.38,0,0,0-.32-2.66L23,14.35a3.59,3.59,0,0,1,2,3.76c0,2.79,0,7.21,0,7.25,0,3.36.41,7.82,4,7.82,1.6,0,3.42-1.11,5-3v-1c-1.52,2-3.07,2.95-4.11,2.95"/><path class="cls-1" d="M74.32,21.07c-.1-1.16-.22-2.47-.22-3.88,0-2.26.56-4,1.62-4.86l.11-.1-.32-.48-.14.11c-2.6,2.05-3.66,4.67-3.66,9,0,1.19,0,2.17.07,3,0,.5,0,.9,0,1.22,0,4.55-1.89,6.75-5.76,6.75-1.59,0-2.54-.63-2.54-1.69,0-.64.35-1.16,1.32-1.9l.22-.17-1.62-.68-.06,0a.73.73,0,0,0-.28-.06,1.71,1.71,0,0,0-1.44,1.87c0,2,1.79,3.34,4.37,3.34a8.47,8.47,0,0,0,8.46-8.65c0-.86-.08-1.79-.17-2.79"/><path class="cls-1" d="M77,20.46c2.71-1.32,4-3,4-5.16a5.31,5.31,0,0,0-2.15-4.21,9,9,0,0,0-5.57-1.72,12.28,12.28,0,0,0-7.91,2.74c-2.4,2-3.62,4.24-3.62,6.54,0,2.87,1.65,4.59,4.4,4.59A5.13,5.13,0,0,0,70,21.47l0,0-.08-.7-.23.2a3.94,3.94,0,0,1-2.5,1.1c-1.84,0-3.18-1.82-3.18-4.33a7.71,7.71,0,0,1,3-5.76,9.12,9.12,0,0,1,5.56-1.88c3.76,0,6.18,2.24,6.18,5.72a4.6,4.6,0,0,1-3.86,4.83l-.13,0v.61h.41c2.74,0,4.51,2.27,4.51,5.79,0,3-1.68,4.79-3.29,4.79a1.15,1.15,0,0,1-1.3-1.12,1.61,1.61,0,0,1,.49-1.07l.13-.16L74.87,29a.7.7,0,0,0-.32-.09c-.46,0-1,.44-1,1.26a2.49,2.49,0,0,0,2.73,2.27c3.09,0,5.79-3.21,5.79-6.86,0-3.06-1.94-5-5.1-5.15"/><path class="cls-1" d="M57.35,27.88c-1,0-1.7-1.1-2.26-3.45a26.58,26.58,0,0,1-.7-5.52c0-1.72.36-2.53,1.1-2.53.49,0,.87.45,1.17,1.39l.26.81c0,.09,0,.2.12.4l2.17-1.66c-.65-2.15-1.37-3.07-2.46-3.07-2.29,0-4.44,4.48-4.44,9.17a8.74,8.74,0,0,0,1.07,4.66,3,3,0,0,0,2.78,1.55,4.58,4.58,0,0,0,3.43-1.7L59,27.1a2.56,2.56,0,0,1-1.66.78"/><path class="cls-1" d="M87.6,14.15c-1,0-2.13.83-3,2.26A12.88,12.88,0,0,0,83,23c0,4,1.36,6.54,3.43,6.54,2.46,0,4.55-4.08,4.55-8.87,0-4-1.28-6.53-3.36-6.53m1.07,11c-.15,1.63-.62,2.42-1.45,2.35s-1.18-.94-1.55-2.86a26.73,26.73,0,0,1-.41-5.93c.15-1.64.67-2.51,1.47-2.4s1.36,1.27,1.72,3.8a25,25,0,0,1,.22,5"/><path class="cls-1" d="M45,16.06c-.55-1.27-1.36-2-2.3-2A3.56,3.56,0,0,0,40,15.91a12.72,12.72,0,0,0-1.93,7.26c0,2.74.63,4.62,1.86,5.61L38.28,30a3,3,0,0,0,3.23,3.2,4,4,0,0,0,3.84-2.49c.38-.92.47-1.81.47-4.59V18.56a17.78,17.78,0,0,1,.45-2.67ZM43.35,28.71A6.92,6.92,0,0,1,43,31.36a1.45,1.45,0,0,1-1.23.92c-.79,0-1.32-.83-1.32-2a4.29,4.29,0,0,1,.18-1.19,3.19,3.19,0,0,0,.94.16,2.13,2.13,0,0,0,1.79-.92Zm-.67-1.08c-.63,0-1.14-1-1.68-3.2a30.28,30.28,0,0,1-.72-5.94c0-1.49.4-2.27,1.14-2.27s1.79,1.47,1.93,3.26v7.79a.81.81,0,0,1-.67.36"/><path class="cls-1" d="M32.16,14.6l-3.22,15,1.37,0L31,25.48H34.1L35,29.41h2.64L34.06,14.6Zm-1,9.83,1.32-6.32,1.39,6.32Z"/><polygon class="cls-1" points="96.23 20.67 98.57 14.55 97.5 14.55 95.69 19.3 93.88 14.55 91.26 14.55 94.19 22.06 91.38 29.49 92.45 29.49 94.72 23.39 97.02 29.43 99.62 29.43 96.23 20.67"/><path class="cls-1" d="M59.16,9.91c-4.37,0-6.6-.52-7.95-1.86s-1.86-3.57-1.86-8a.1.1,0,0,0-.2,0c0,4.38-.52,6.6-1.86,8s-3.58,1.86-7.95,1.86a.1.1,0,0,0-.1.1.09.09,0,0,0,.1.1c4.37,0,6.6.52,7.95,1.87a5.6,5.6,0,0,1,1.41,2.74l-.78,16.66,1.33,2.72,1.32-2.72-.78-16.64A5.64,5.64,0,0,1,51.21,12c1.35-1.35,3.58-1.87,7.95-1.87a.09.09,0,0,0,.1-.1.1.1,0,0,0-.1-.1m-5.27.15c-3.27.23-4.36,1.32-4.59,4.59a.05.05,0,0,1-.1,0c-.23-3.27-1.32-4.36-4.59-4.59-.06,0-.06-.09,0-.1C47.88,9.73,49,8.64,49.2,5.37a.05.05,0,0,1,.1,0c.23,3.27,1.32,4.36,4.59,4.59.06,0,.06.1,0,.1"/></g></g></svg>